<mxfile host="app.diagrams.net" modified="2023-11-18T05:52:09.421Z" agent="Mozilla/5.0 (Windows NT 10.0; Win64; x64) AppleWebKit/537.36 (KHTML, like Gecko) Chrome/119.0.0.0 Safari/537.36" version="21.8.2" etag="DB7WOET4VUD1lEut6MIw" type="github">
  <diagram name="페이지-1" id="WK3G2E9u638CpfH5w3Pa">
    <mxGraphModel>
      <root>
        <mxCell id="0" />
        <mxCell id="1" parent="0" />
      </root>
    </mxGraphModel>
  </diagram>
</mxfile>
